#!OML:ASF E:/inclinewalkrobotboard/Project1/Captureday1/Session1/subject1.ASF
:FULLY-SPECIFIED
:DEGREES
226
root 0 0 0 16.084577454946018 42.08945721773992 -0.684049755736222
lowerback -10.964333324691204 -4.509022131297254 -4.476465975577702
upperback -11.769909859859032 -5.606767531658705 8.945743938304238
thorax -5.419814066214169 -2.1193295938520293 12.183159556109718
lowerneck -3.002143143409617 -9.823368228518243 -8.484662092359612
upperneck 32.77293404642581 -12.328227587718297 0.20796623111931156
head 11.905476978964256 -6.379735580168576 -0.130588685843954
rclavicle -4.351752678136544E-15 3.919495850852529E-15
rhumerus 163.4978543076092 5.7945951720542155 -193.68033857549557
rradius 17.88191412163914
rwrist 81.26303305083924
rhand -17.132306594398344 7.952031596630414
rfingers 7.12502000000001
rthumb 9.067443205981455 -21.939186193890436
lclavicle 1.588537644121318E-15 -5.3952976576484825E-15
lhumerus 85.00235475768494 32.290554936693894 16.604847319116107
lradius 51.25498202707051
lwrist -16.874003130062675
lhand -7.3883954128426055 11.444939983215917
lfingers 7.125019999999991
lthumb 18.452993748628227 40.20647167054042
rfemur 159.1655784162195 -214.53010363836773 -185.98967308923193
rtibia 63.833183744606885
rfoot -52.138781365581906 -24.607482598599912
rtoes 60.075112960482954
lfemur -88.56875859561711 22.808238654480895 -51.89419703071998
ltibia 75.62820076372124
lfoot -16.533617893901024 32.85262385289448
ltoes 10.670946725129058
227
root 0 0 0 16.08601615062481 42.10136251413232 -0.6833205975143439
lowerback -10.960432807784962 -4.506138794169555 -4.476223663092349
upperback -11.767757636687932 -5.602607540556737 8.943089225944156
thorax -5.419934116055041 -2.1171011577080394 12.179781017984517
lowerneck -3.0035166453592606 -9.823122494993111 -8.481550140271843
upperneck 32.77453534511695 -12.327290914832005 0.2016208126039456
head 11.905877378996735 -6.379548799280952 -0.13277843850767623
rclavicle -4.395020441205423E-15 3.909127129671795E-15
rhumerus 163.38543019194654 5.762478689311571 -193.77030376390323
rradius 17.685551277745088
rwrist 81.60315931987473
rhand -17.130372794343867 7.931048792508327
rfingers 7.125020000000011
rthumb 9.06810284569697 -21.963935325546988
lclavicle 1.5667962773041387E-15 -5.324616394161105E-15
lhumerus 85.09813864661743 32.37077259434322 16.585709934734805
lradius 51.084690590974475
lwrist -16.954409204911464
lhand -7.526216137446092 11.50395078671266
lfingers 7.12501999999999
lthumb 18.320697538630196 40.28854956688548
rfemur 158.88362018848147 -214.28887473819964 -185.8571881474354
rtibia 63.58765255210588
rfoot -52.42744814983817 -24.565962908138637
rtoes 60.310913319568485
lfemur -88.57545980843226 22.813838025777805 -51.830729912503394
ltibia 75.69533387943856
lfoot -16.62785735202771 32.8186515462417
ltoes 10.705845843223214
228
root 0 0 0 16.079114897487777 42.116254289779164 -0.6785278207218735
lowerback -10.95353959375798 -4.504190111375376 -4.47678797481827
upperback -11.764133506381485 -5.599660451834521 8.940537406285431
thorax -5.420217279931444 -2.1153470944561086 12.17697990748264
lowerneck -3.004423854302474 -9.822847304314065 -8.478552909238648
upperneck 32.77611737755926 -12.32611281847181 0.19524066488217606
head 11.906200080165434 -6.379312612468559 -0.13499605990008434
rclavicle -4.428689928341998E-15 3.904664805377101E-15
rhumerus 163.27896163280835 5.740017205744252 -193.84392497363825
rradius 17.522319822483375
rwrist 81.88506111528967
rhand -17.127732662220144 7.914794070074173
rfingers 7.125020000000011
rthumb 9.069664313613938 -21.982924319457005
lclavicle 1.5609354035265783E-15 -5.253328530805676E-15
lhumerus 85.16201726017277 32.43713110228378 16.571404048007217
lradius 50.93015327260302
lwrist -17.029688731845905
lhand -7.652431112897315 11.55684584005501
lfingers 7.1250199999999895
lthumb 18.19950777549393 40.362282936035484
rfemur 158.63649331398113 -214.07752441560905 -185.73667168967245
rtibia 63.359595512216785
rfoot -52.72678842809644 -24.507350076383972
rtoes 60.497658337043376
lfemur -88.58336913650196 22.815170702657646 -51.798809563693524
ltibia 75.74088631022681
lfoot -16.65412575906223 32.795142281584376
ltoes 10.71684727274532
229
root 0 0 0 16.065543730947567 42.133672422228855 -0.670569785554866
lowerback -10.94424855277123 -4.502997790160867 -4.477940910177967
upperback -11.759355525759688 -5.5976946473185425 8.938100947764902
thorax -5.420652167232467 -2.1139825396281307 12.174643929588402
lowerneck -3.0049276846311717 -9.822567824348496 -8.475690818619213
upperneck 32.77762820099642 -12.324763683723308 0.18887353551424546
head 11.906439149948762 -6.379048093263106 -0.13722251519021778
rclavicle -4.45487579581096E-15 3.905737519436366E-15
rhumerus 163.17733782383434 5.727096673450834 -193.90720220255434
rradius 17.386842152133777
rwrist 82.11825325362338
rhand -17.12506866535156 7.9029720551939295
rfingers 7.125020000000011
rthumb 9.071439213920836 -21.996672473330218
lclavicle 1.5670418264939953E-15 -5.182695948061711E-15
lhumerus 85.20323659767733 32.49189861255526 16.560134514700774
lradius 50.79050039610446
lwrist -17.09912596100559
lhand -7.766390197642387 11.604551294641789
lfingers 7.1250199999999895
lthumb 18.09006289226196 40.42860708506031
rfemur 158.42013196940974 -213.8925484008094 -185.627363411082
rtibia 63.14706123475894
rfoot -53.03403919048225 -24.434390475271613
rtoes 60.64319744380893
lfemur -88.59270740559043 22.813976216762462 -51.79129403788275
ltibia 75.77034610169986
lfoot -16.622665926183785 32.77864940312192
ltoes 10.707553044473755
230
root 0 0 0 16.046799121835974 42.15294587134555 -0.6601876387957741
lowerback -10.933124191350515 -4.502405806543406 -4.4795316145873985
upperback -11.75371013292979 -5.596510247959367 8.935774106693335
thorax -5.421218023578642 -2.112931940205118 12.172681311709766
lowerneck -3.005105528006813 -9.822290713655367 -8.472967393934065
upperneck 32.77903025331624 -12.323293851021509 0.1825817579581961
head 11.906594783673818 -6.378765107545448 -0.13943385371827
rclavicle -4.475267406141585E-15 3.911749430111419E-15
rhumerus 163.07968803446977 5.723081016978259 -193.964458830618
rradius 17.2742927019453
rwrist 82.31097144027682
rhand -17.122746388745085 7.895107589870845
rfingers 7.125020000000011
rthumb 9.073045140319955 -22.005830156137186
lclavicle 1.5819787215718686E-15 -5.113521831770068E-15
lhumerus 85.22846325410099 32.537153702096276 16.550822931310282
lradius 50.66456809673106
lwrist -17.162553190874384
lhand -7.868350468681549 11.64780668299257
lfingers 7.125019999999989
lthumb 17.992125415998736 40.4883884988731
rfemur 158.2306802471415 -213.73061601295552 -185.52835684399224
rtibia 62.9484963645486
rfoot -53.34610396305134 -24.349909153885914
rtoes 60.75448357437308
lfemur -88.60344007621578 22.811292328428838 -51.80254703747339
ltibia 75.7877393289136
lfoot -16.54366547406542 32.7669057470585
ltoes 10.681510063764913
231
root 0 0 0 16.024179284546108 42.17335421296558 -0.6479910074616235
lowerback -10.92067212581056 -4.502281195424954 -4.48145284103643
upperback -11.747445161839403 -5.595938429621964 8.933542714639753
thorax -5.421890066159043 -2.112130372946387 12.17101697782319
lowerneck -3.0050366025823356 -9.82201315864717 -8.470376913531936
upperneck 32.780299188378024 -12.321740120840685 0.17642824137481927
head 11.906671570554836 -6.37846737324207 -0.14160614943618044
rclavicle -4.4911600600977306E-15 3.921998419476447E-15
rhumerus 162.9853677510083 5.727006178137547 -194.0186523660872
rradius 17.18046291789177
rwrist 82.47025970905659
rhand -17.12091980368458 7.890641050687403
rfingers 7.125020000000011
rthumb 9.074306020041613 -22.01109389420414
lclavicle 1.6033301402614959E-15 -5.046267809053955E-15
lhumerus 85.24239789444071 32.57471465393701 16.54284943972972
lradius 50.551026233338
lwrist -17.22017080003502
lhand -7.959121610840909 11.68722777883934
lfingers 7.125019999999989
lthumb 17.90492393634395 40.542435588315904
rfemur 158.06458796777227 -213.58865817847126 -185.4386898603421
rtibia 62.762544842968666
rfoot -53.660112639558115 -24.256514466062864
rtoes 60.837538392409584
lfemur -88.61540127790667 22.807730658462717 -51.828084731667786
ltibia 75.79604636067327
lfoot -16.42669863929506 32.758438004494266
ltoes 10.642065706143834
232
root 0 0 0 15.998775512280593 42.19422984234757 -0.6344768916656669
lowerback -10.907323458369703 -4.502513173413243 -4.483625554386179
upperback -11.740766956961103 -5.595839149246878 8.931390004389646
thorax -5.422643186990049 -2.1115234804819583 12.169589365091618
lowerneck -3.0047940793059977 -9.821728621708147 -8.46790907484185
upperneck 32.781421939400275 -12.320129930353811 0.17046732143695742
head 11.906676868036833 -6.37815567864299 -0.14371871810540027
rclavicle -4.503520763529458E-15 3.935759950517535E-15
rhumerus 162.8939244993407 5.737741195586086 -194.07167461220976
rradius 17.10176655250383
rwrist 82.60209353789793
rhand -17.119613353007182 7.88899730512539
rfingers 7.125020000000012
rthumb 9.07517382693538 -22.013146298412337
lclavicle 1.6292884068743725E-15 -4.98115167006027E-15
lhumerus 85.24830956473426 32.60612312380219 16.535872361051908
lradius 50.448473380909064
lwrist -17.272404403125414
lhand -8.039807715248998 11.723346258913885
lfingers 7.125019999999988
lthumb 17.827402083303085 40.59150177154464
rfemur 157.91863678519942 -213.4638908844782 -185.3573949444781
rtibia 62.5879340733901
rfoot -53.97369950202278 -24.156459327316504
rtoes 60.89750286960219
lfemur -88.62836959918896 22.803652952491337 -51.864317202262825
ltibia 75.79749956013846
lfoot -16.280387561431155 32.75228910992761
ltoes 10.5922584417076
